<?xml version="1.0" encoding="UTF-8" standalone="no"?>
<!DOCTYPE svg PUBLIC "-//W3C//DTD SVG 1.1//EN"
 "http://www.w3.org/Graphics/SVG/1.1/DTD/svg11.dtd">
<!-- Generated by graphviz version 5.0.0 (20220707.1540)
 -->
<!-- Title: dependencies Pages: 1 -->
<svg width="1395pt" height="247pt"
 viewBox="0.00 0.00 1395.00 246.80" xmlns="http://www.w3.org/2000/svg" xmlns:xlink="http://www.w3.org/1999/xlink">
<g id="graph0" class="graph" transform="scale(1 1) rotate(0) translate(4 242.8)">
<title>dependencies</title>
<polygon fill="white" stroke="transparent" points="-4,4 -4,-242.8 1391,-242.8 1391,4 -4,4"/>
<text text-anchor="middle" x="693.5" y="-8.2" font-family="sans-serif" font-size="14.00">dependencies</text>
<g id="clust1" class="cluster">
<title>cluster_AppModule</title>
<polygon fill="none" stroke="black" stroke-dasharray="1,5" points="8,-32.8 8,-230.8 1379,-230.8 1379,-32.8 8,-32.8"/>
</g>
<g id="clust2" class="cluster">
<title>cluster_AppModule_declarations</title>
<polygon fill="none" stroke="black" points="318,-40.8 318,-92.8 1371,-92.8 1371,-40.8 318,-40.8"/>
</g>
<g id="clust10" class="cluster">
<title>cluster_AppModule_imports</title>
<polygon fill="none" stroke="black" points="166,-40.8 166,-92.8 310,-92.8 310,-40.8 166,-40.8"/>
</g>
<g id="clust12" class="cluster">
<title>cluster_AppModule_bootstrap</title>
<polygon fill="none" stroke="black" points="591,-170.8 591,-222.8 715,-222.8 715,-170.8 591,-170.8"/>
</g>
<g id="clust13" class="cluster">
<title>cluster_AppModule_providers</title>
<polygon fill="none" stroke="black" points="16,-40.8 16,-92.8 158,-92.8 158,-40.8 16,-40.8"/>
</g>
<!-- AppComponent -->
<g id="node1" class="node">
<title>AppComponent</title>
<polygon fill="#ffffb3" stroke="black" points="1362.94,-84.8 1257.06,-84.8 1257.06,-48.8 1362.94,-48.8 1362.94,-84.8"/>
<text text-anchor="middle" x="1310" y="-62.6" font-family="Times,serif" font-size="14.00">AppComponent</text>
</g>
<!-- AppModule -->
<g id="node8" class="node">
<title>AppModule</title>
<polygon fill="#8dd3c7" stroke="black" points="694.66,-149.8 691.66,-153.8 670.66,-153.8 667.66,-149.8 611.34,-149.8 611.34,-113.8 694.66,-113.8 694.66,-149.8"/>
<text text-anchor="middle" x="653" y="-127.6" font-family="Times,serif" font-size="14.00">AppModule</text>
</g>
<!-- AppComponent&#45;&gt;AppModule -->
<g id="edge1" class="edge">
<title>AppComponent&#45;&gt;AppModule</title>
<path fill="none" stroke="black" d="M1310,-84.81C1310,-107.29 1310,-142.8 1310,-142.8 1310,-142.8 704.85,-142.8 704.85,-142.8"/>
<polygon fill="black" stroke="black" points="704.85,-139.3 694.85,-142.8 704.85,-146.3 704.85,-139.3"/>
</g>
<!-- CreateAccountComponent -->
<g id="node2" class="node">
<title>CreateAccountComponent</title>
<polygon fill="#ffffb3" stroke="black" points="1239.79,-84.8 1074.21,-84.8 1074.21,-48.8 1239.79,-48.8 1239.79,-84.8"/>
<text text-anchor="middle" x="1157" y="-62.6" font-family="Times,serif" font-size="14.00">CreateAccountComponent</text>
</g>
<!-- CreateAccountComponent&#45;&gt;AppModule -->
<g id="edge2" class="edge">
<title>CreateAccountComponent&#45;&gt;AppModule</title>
<path fill="none" stroke="black" d="M1157,-84.93C1157,-105.37 1157,-135.8 1157,-135.8 1157,-135.8 704.67,-135.8 704.67,-135.8"/>
<polygon fill="black" stroke="black" points="704.67,-132.3 694.67,-135.8 704.67,-139.3 704.67,-132.3"/>
</g>
<!-- EmailRespondComponent -->
<g id="node3" class="node">
<title>EmailRespondComponent</title>
<polygon fill="#ffffb3" stroke="black" points="1055.77,-84.8 892.23,-84.8 892.23,-48.8 1055.77,-48.8 1055.77,-84.8"/>
<text text-anchor="middle" x="974" y="-62.6" font-family="Times,serif" font-size="14.00">EmailRespondComponent</text>
</g>
<!-- EmailRespondComponent&#45;&gt;AppModule -->
<g id="edge3" class="edge">
<title>EmailRespondComponent&#45;&gt;AppModule</title>
<path fill="none" stroke="black" d="M974,-85.07C974,-103.36 974,-128.8 974,-128.8 974,-128.8 704.97,-128.8 704.97,-128.8"/>
<polygon fill="black" stroke="black" points="704.97,-125.3 694.97,-128.8 704.97,-132.3 704.97,-125.3"/>
</g>
<!-- EmailSendComponent -->
<g id="node4" class="node">
<title>EmailSendComponent</title>
<polygon fill="#ffffb3" stroke="black" points="874.27,-84.8 731.73,-84.8 731.73,-48.8 874.27,-48.8 874.27,-84.8"/>
<text text-anchor="middle" x="803" y="-62.6" font-family="Times,serif" font-size="14.00">EmailSendComponent</text>
</g>
<!-- EmailSendComponent&#45;&gt;AppModule -->
<g id="edge4" class="edge">
<title>EmailSendComponent&#45;&gt;AppModule</title>
<path fill="none" stroke="black" d="M803,-84.81C803,-100.85 803,-121.8 803,-121.8 803,-121.8 704.78,-121.8 704.78,-121.8"/>
<polygon fill="black" stroke="black" points="704.78,-118.3 694.78,-121.8 704.78,-125.3 704.78,-118.3"/>
</g>
<!-- HeaderComponent -->
<g id="node5" class="node">
<title>HeaderComponent</title>
<polygon fill="#ffffb3" stroke="black" points="713.75,-84.8 592.25,-84.8 592.25,-48.8 713.75,-48.8 713.75,-84.8"/>
<text text-anchor="middle" x="653" y="-62.6" font-family="Times,serif" font-size="14.00">HeaderComponent</text>
</g>
<!-- HeaderComponent&#45;&gt;AppModule -->
<g id="edge5" class="edge">
<title>HeaderComponent&#45;&gt;AppModule</title>
<path fill="none" stroke="black" d="M653,-84.91C653,-84.91 653,-103.79 653,-103.79"/>
<polygon fill="black" stroke="black" points="649.5,-103.79 653,-113.79 656.5,-103.79 649.5,-103.79"/>
</g>
<!-- HomeComponent -->
<g id="node6" class="node">
<title>HomeComponent</title>
<polygon fill="#ffffb3" stroke="black" points="573.55,-84.8 458.45,-84.8 458.45,-48.8 573.55,-48.8 573.55,-84.8"/>
<text text-anchor="middle" x="516" y="-62.6" font-family="Times,serif" font-size="14.00">HomeComponent</text>
</g>
<!-- HomeComponent&#45;&gt;AppModule -->
<g id="edge6" class="edge">
<title>HomeComponent&#45;&gt;AppModule</title>
<path fill="none" stroke="black" d="M516,-84.81C516,-100.85 516,-121.8 516,-121.8 516,-121.8 601.15,-121.8 601.15,-121.8"/>
<polygon fill="black" stroke="black" points="601.15,-125.3 611.15,-121.8 601.15,-118.3 601.15,-125.3"/>
</g>
<!-- LoginComponent -->
<g id="node7" class="node">
<title>LoginComponent</title>
<polygon fill="#ffffb3" stroke="black" points="440.27,-84.8 325.73,-84.8 325.73,-48.8 440.27,-48.8 440.27,-84.8"/>
<text text-anchor="middle" x="383" y="-62.6" font-family="Times,serif" font-size="14.00">LoginComponent</text>
</g>
<!-- LoginComponent&#45;&gt;AppModule -->
<g id="edge7" class="edge">
<title>LoginComponent&#45;&gt;AppModule</title>
<path fill="none" stroke="black" d="M383,-85.07C383,-103.36 383,-128.8 383,-128.8 383,-128.8 601.11,-128.8 601.11,-128.8"/>
<polygon fill="black" stroke="black" points="601.11,-132.3 611.11,-128.8 601.11,-125.3 601.11,-132.3"/>
</g>
<!-- AppComponent  -->
<g id="node10" class="node">
<title>AppComponent </title>
<polygon fill="#80b1d3" stroke="black" points="707.44,-214.8 598.56,-214.8 598.56,-178.8 707.44,-178.8 707.44,-214.8"/>
<text text-anchor="middle" x="653" y="-192.6" font-family="Times,serif" font-size="14.00">AppComponent </text>
</g>
<!-- AppModule&#45;&gt;AppComponent  -->
<g id="edge9" class="edge">
<title>AppModule&#45;&gt;AppComponent </title>
<path fill="none" stroke="black" stroke-dasharray="1,5" d="M653,-149.91C653,-149.91 653,-168.79 653,-168.79"/>
<polygon fill="black" stroke="black" points="649.5,-168.79 653,-178.79 656.5,-168.79 649.5,-168.79"/>
</g>
<!-- AppRoutingModule -->
<g id="node9" class="node">
<title>AppRoutingModule</title>
<polygon fill="#8dd3c7" stroke="black" points="302.28,-84.8 299.28,-88.8 278.28,-88.8 275.28,-84.8 173.72,-84.8 173.72,-48.8 302.28,-48.8 302.28,-84.8"/>
<text text-anchor="middle" x="238" y="-62.6" font-family="Times,serif" font-size="14.00">AppRoutingModule</text>
</g>
<!-- AppRoutingModule&#45;&gt;AppModule -->
<g id="edge8" class="edge">
<title>AppRoutingModule&#45;&gt;AppModule</title>
<path fill="none" stroke="black" d="M238,-84.93C238,-105.37 238,-135.8 238,-135.8 238,-135.8 601.31,-135.8 601.31,-135.8"/>
<polygon fill="black" stroke="black" points="601.31,-139.3 611.31,-135.8 601.31,-132.3 601.31,-139.3"/>
</g>
<!-- EmailService -->
<g id="node11" class="node">
<title>EmailService</title>
<ellipse fill="#fdb462" stroke="black" cx="87" cy="-66.8" rx="63.11" ry="18"/>
<text text-anchor="middle" x="87" y="-62.6" font-family="Times,serif" font-size="14.00">EmailService</text>
</g>
<!-- EmailService&#45;&gt;AppModule -->
<g id="edge10" class="edge">
<title>EmailService&#45;&gt;AppModule</title>
<path fill="none" stroke="black" d="M87,-84.81C87,-107.29 87,-142.8 87,-142.8 87,-142.8 600.92,-142.8 600.92,-142.8"/>
<polygon fill="black" stroke="black" points="600.92,-146.3 610.92,-142.8 600.92,-139.3 600.92,-146.3"/>
</g>
</g>
</svg>
